# xmcd CD database file generated by OrangeCD 5.2
#
# Track frame offsets:
#	150
#	17506
#	37304
#	53252
#	67308
#	84668
#	101231
#	119192
#	135844
#	151598
#	163281
#	179602
#	193140
#	207490
#	220223
#	237813
#	254460
#	269982
#	287166
#	306618
#	322175
#	336480
#
# Disc length: 4694 seconds
#
# Revision: 1
# Processed by: cddbd v1.5.1PL0 Copyright (c) Steve Scherf et al.
# Submitted via: OrangeCD 5.2
#
DISCID=6b125416
DTITLE=The Dean Brothers - A Chance To Dance 4
DYEAR=2000
DGENRE=Country
TTITLE0=Pizzirico
TTITLE1=Movin It On Over 
TTITLE2=Vertical Expression 
TTITLE3=Husbands And Wives
TTITLE4=Runaway
TTITLE5=Some Broken hearts
TTITLE6=Amazed
TTITLE7=Me And Maxine
TTITLE8=Patient Heart
TTITLE9=Cowgirls Sweetheart
TTITLE10=I Fall To Pieces
TTITLE11=G I Blues
TTITLE12=The Right Place
TTITLE13=It Must be Love
TTITLE14=Live, Laugh, Love
TTITLE15=Pretend
TTITLE16=Why Me
TTITLE17=It's a Love Thing
TTITLE18=Murder On Music Row
TTITLE19=That's The Thing About Love
TTITLE20=Hillbilly Shoes
TTITLE21=Down On the Corner
EXTD=
EXTT0=
EXTT1=
EXTT2=
EXTT3=
EXTT4=
EXTT5=
EXTT6=
EXTT7=
EXTT8=
EXTT9=
EXTT10=
EXTT11=
EXTT12=
EXTT13=
EXTT14=
EXTT15=
EXTT16=
EXTT17=
EXTT18=
EXTT19=
EXTT20=
EXTT21=
PLAYORDER=
